# xmcd
#
# Track frame offsets: 
#        150
#        17331
#        36136
#        49602
#        64962
#        77742
#        82692
#        102856
#        118533
#        144436
#        155265
#        175515
#        197696
#        205209
#        223092
#        247352
#        255752
#        277974
#
# Disc length: 3954 seconds
#
# Revision: 0
# Processed by: cddbd v1.5.2PL0 Copyright (c) Steve Scherf et al.
# Submitted via: ExactAudioCopy v0.95a2
#
DISCID=e70f7012
DTITLE=S.U.N. - Nasou und SeyerDjin - Filmmusik
DYEAR=2008
DGENRE=Hip-Hop
TTITLE0=Intro
TTITLE1=Fickmusik
TTITLE2=Methode
TTITLE3=Du Hure
TTITLE4=Söhne Zapatas
TTITLE5=Ab (Skit)
TTITLE6=Alles was ich hab
TTITLE7=B(e)reit sein
TTITLE8=Hits von der Strasse ft. Dani Ill
TTITLE9=180 Km/h (Skit)
TTITLE10=Ein Homeboy ft. Lea Sittler
TTITLE11=Brandmal
TTITLE12=Beat is fertig (Skit)
TTITLE13=Kranke Rapper
TTITLE14=GGE Anthem ft. Dani Ill and SLO
TTITLE15=Hyro (Skit)
TTITLE16=Soundtrack ft. Dani Ill
TTITLE17=Werdegang
EXTD=
EXTT0=
EXTT1=
EXTT2=
EXTT3=
EXTT4=
EXTT5=
EXTT6=
EXTT7=
EXTT8=
EXTT9=
EXTT10=
EXTT11=
EXTT12=
EXTT13=
EXTT14=
EXTT15=
EXTT16=
EXTT17=
PLAYORDER=
